# xmcd
#
# Track frame offsets: 
#        150
#        12212
#        59142
#        98437
#        130420
#        164430
#        178607
#
# Disc length: 2795 seconds
#
# Revision: 1
# Processed by: cddbd v1.5.2PL0 Copyright (c) Steve Scherf et al.
# Submitted via: ExactAudioCopy v0.99pb5
#
DISCID=580ae907
DTITLE=Derek Bailey - The Music Improvisasion Company
DYEAR=1970
DGENRE=Jazz
TTITLE0=Third Stream Boogaloo
TTITLE1=Dragon Path
TTITLE2=Packaged Eel
TTITLE3=Untitled No1.
TTITLE4=Untitled No2.
TTITLE5=Tuck
TTITLE6=Wolfgang Van Gangbang
EXTD=
EXTT0=
EXTT1=
EXTT2=
EXTT3=
EXTT4=
EXTT5=
EXTT6=
PLAYORDER=
